<?xml version="1.0" standalone="no"?>
<!DOCTYPE svg PUBLIC "-//W3C//DTD SVG 20010904//EN"
 "http://www.w3.org/TR/2001/REC-SVG-20010904/DTD/svg10.dtd">
<svg version="1.0" xmlns="http://www.w3.org/2000/svg"
 width="237.000000pt" height="212.000000pt" viewBox="0 0 237.000000 212.000000"
 preserveAspectRatio="xMidYMid meet">

<g transform="translate(0.000000,212.000000) scale(0.100000,-0.100000)"
fill="#000000" stroke="none">
<path d="M1140 1987 c-127 -67 -730 -425 -747 -444 l-23 -24 0 -463 c0 -427 1
-465 18 -484 9 -12 185 -118 390 -236 278 -161 382 -216 406 -216 34 0 70 20
571 312 208 121 231 137 242 168 17 51 18 895 0 930 -16 31 -769 470 -807 470
-14 0 -36 -6 -50 -13z m195 -342 c93 -24 183 -74 256 -142 70 -66 126 -139
116 -150 -4 -3 -48 -30 -99 -59 l-92 -53 -53 59 c-37 41 -75 70 -121 92 -60
30 -75 33 -152 32 -154 -1 -267 -70 -332 -202 -31 -62 -33 -74 -33 -167 0
-120 18 -167 92 -246 91 -98 232 -140 362 -109 68 16 161 77 200 133 l33 45
91 -54 c50 -30 95 -58 99 -62 13 -13 -72 -123 -133 -171 -117 -93 -235 -135
-384 -135 -166 0 -306 58 -423 175 -188 189 -232 455 -116 697 69 144 227 274
387 317 70 19 228 19 302 0z"/>
</g>
</svg>
