<?xml version="1.0" standalone="no"?>
<!DOCTYPE svg PUBLIC "-//W3C//DTD SVG 20010904//EN"
 "http://www.w3.org/TR/2001/REC-SVG-20010904/DTD/svg10.dtd">
<svg version="1.0" xmlns="http://www.w3.org/2000/svg"
 width="633.000000pt" height="394.000000pt" viewBox="0 0 633.000000 394.000000"
 preserveAspectRatio="xMidYMid meet">

<g transform="translate(0.000000,394.000000) scale(0.100000,-0.100000)"
fill="#000000" stroke="none">
<path d="M3123 3933 c-12 -2 -27 -11 -33 -19 -7 -8 -16 -14 -21 -14 -4 0 -30
-13 -57 -29 -26 -15 -70 -41 -98 -56 -27 -15 -107 -61 -179 -103 -71 -42 -151
-87 -177 -101 -100 -56 -174 -100 -194 -118 -32 -28 -44 -77 -44 -175 0 -81
-2 -92 -22 -109 -13 -10 -26 -18 -29 -19 -6 0 -256 -143 -299 -170 -8 -5 -31
-17 -50 -27 -30 -15 -82 -45 -155 -90 -11 -7 -36 -20 -55 -30 -75 -36 -140
-83 -155 -112 -13 -26 -15 -92 -15 -465 l0 -434 -81 -48 c-128 -75 -119 -32
-119 -562 l0 -452 41 -40 c23 -22 45 -40 50 -40 4 0 50 -25 102 -55 51 -30 99
-55 105 -55 7 0 12 -4 12 -10 0 -5 11 -12 25 -16 14 -3 25 -10 25 -14 0 -4 8
-10 18 -14 9 -3 24 -10 32 -15 25 -18 163 -96 200 -114 19 -10 44 -23 54 -30
119 -74 125 -77 181 -77 30 0 55 4 55 9 0 5 11 12 25 15 14 4 25 11 25 16 0 6
6 10 14 10 7 0 30 11 50 25 l37 25 37 -23 c20 -13 44 -27 52 -30 8 -4 31 -17
50 -28 127 -75 188 -109 198 -109 7 0 12 -4 12 -10 0 -5 11 -12 25 -16 14 -3
25 -10 25 -14 0 -4 8 -10 18 -14 9 -3 24 -10 32 -15 23 -16 161 -95 200 -115
19 -9 46 -24 60 -32 32 -18 98 -18 130 0 14 8 41 23 60 32 29 15 113 64 275
161 11 6 36 20 55 29 32 17 164 92 200 114 8 5 33 19 55 31 22 11 43 26 47 33
6 8 12 8 25 -2 10 -6 34 -20 53 -30 19 -9 37 -19 40 -22 23 -24 66 -40 110
-40 50 0 63 6 176 77 10 7 46 27 79 43 33 17 62 34 65 38 3 4 28 18 55 32 28
13 64 35 81 47 17 13 36 23 42 23 6 0 17 6 24 12 7 7 27 20 43 28 17 8 63 34
103 57 40 24 76 43 81 43 5 0 27 18 50 40 l41 40 0 460 0 459 -31 36 c-17 19
-35 35 -40 35 -4 0 -34 16 -66 35 l-58 35 -5 449 -5 449 -24 26 c-14 14 -30
26 -38 26 -7 0 -13 4 -13 8 0 5 -30 24 -66 43 -36 19 -73 39 -82 44 -9 6 -48
28 -87 50 -38 22 -79 45 -90 52 -11 7 -27 15 -35 20 -8 4 -75 42 -149 85 -73
43 -136 78 -140 78 -3 1 -16 9 -28 19 -21 17 -23 28 -23 115 0 103 -11 139
-49 171 -22 18 -199 125 -206 125 -2 0 -49 27 -105 60 -56 33 -103 60 -105 60
-1 0 -64 36 -139 80 -76 44 -140 80 -143 80 -4 0 -14 7 -22 15 -18 15 -83 26
-118 18z m67 -272 c0 -5 10 -13 23 -17 12 -4 24 -10 27 -13 3 -4 21 -15 40
-24 19 -10 76 -42 125 -72 50 -30 96 -55 103 -55 6 0 12 -4 12 -10 0 -5 11
-12 25 -16 14 -3 25 -9 25 -13 0 -4 14 -12 32 -19 17 -6 28 -15 24 -19 -9 -10
-89 -57 -136 -80 -19 -10 -37 -21 -40 -24 -3 -4 -15 -9 -27 -13 -13 -4 -23
-12 -23 -17 0 -5 -6 -9 -13 -9 -7 0 -46 -20 -86 -45 -40 -25 -76 -45 -81 -45
-4 0 -13 -7 -20 -15 -7 -8 -23 -15 -35 -15 -12 0 -28 7 -35 15 -7 8 -16 15
-21 15 -5 0 -34 16 -65 36 -31 20 -70 42 -87 50 -18 9 -41 21 -52 27 -11 7
-38 23 -60 35 -104 59 -137 79 -137 87 0 8 65 48 137 84 22 11 69 38 105 60
36 22 81 48 100 57 19 10 37 21 40 25 3 3 15 9 28 13 12 4 22 12 22 17 0 5 11
9 25 9 14 0 25 -4 25 -9z m-425 -581 c44 -25 87 -50 95 -54 8 -4 24 -12 35
-19 11 -7 48 -28 83 -47 l62 -35 0 -267 c0 -148 -3 -268 -6 -268 -8 0 -180 97
-216 121 -15 11 -29 19 -32 19 -2 0 -39 20 -80 45 -42 25 -80 45 -84 45 -4 1
-17 9 -29 19 -23 19 -23 22 -23 286 l0 266 58 -32 c31 -18 93 -53 137 -79z
m973 -440 c-13 -11 -26 -19 -30 -20 -4 0 -40 -19 -80 -43 -40 -24 -80 -46 -88
-50 -8 -4 -31 -17 -50 -28 -111 -66 -188 -109 -193 -109 -4 0 -7 120 -7 268
l0 267 63 35 c34 19 71 40 82 47 11 7 27 15 35 19 8 4 48 27 88 51 41 24 75
43 77 43 2 0 30 16 62 35 l58 35 3 -266 c2 -265 2 -266 -20 -284z m-1418 108
c0 -233 4 -242 124 -310 46 -27 89 -48 95 -48 6 0 11 -4 11 -10 0 -5 11 -12
25 -16 14 -3 25 -10 25 -14 0 -4 8 -10 18 -14 9 -3 24 -10 32 -15 25 -18 163
-96 200 -114 19 -10 44 -23 55 -30 93 -57 126 -77 131 -77 3 0 22 -11 42 -25
41 -28 130 -35 154 -12 7 6 27 19 43 27 26 13 91 50 150 87 11 7 36 20 55 30
37 18 175 96 200 114 8 5 23 12 33 15 9 4 17 10 17 15 0 5 5 9 10 9 6 0 60 28
120 63 150 85 150 85 150 325 0 100 3 182 8 181 4 0 21 -9 37 -19 17 -10 54
-31 83 -46 30 -15 59 -32 65 -38 7 -6 28 -19 47 -28 40 -20 113 -61 120 -68 8
-8 41 -27 108 -61 l62 -32 0 -314 c0 -172 -2 -313 -4 -313 -3 0 -80 43 -172
96 -175 100 -220 116 -264 90 -14 -8 -43 -24 -65 -35 -22 -11 -47 -25 -55 -31
-16 -10 -83 -49 -166 -95 -27 -15 -94 -54 -150 -86 -55 -32 -106 -59 -112 -59
-7 0 -12 -3 -12 -8 0 -4 -17 -16 -37 -27 -95 -50 -155 -90 -173 -115 -19 -27
-20 -46 -20 -475 0 -377 2 -450 15 -475 14 -28 136 -110 163 -110 7 0 12 -4
12 -8 0 -4 26 -21 58 -37 31 -17 71 -40 89 -51 31 -21 31 -22 14 -38 -10 -9
-23 -16 -29 -16 -7 0 -12 -4 -12 -10 0 -5 -5 -10 -11 -10 -7 0 -64 -30 -128
-67 -63 -38 -123 -72 -133 -78 -9 -5 -39 -22 -67 -37 -27 -15 -64 -36 -82 -47
l-33 -20 -50 28 c-28 16 -67 38 -86 50 -19 11 -42 24 -50 28 -17 8 -158 89
-180 103 -8 6 -31 18 -50 28 -19 9 -36 20 -38 25 -2 4 -9 7 -15 7 -6 0 -18 7
-28 16 -17 16 -17 17 14 38 18 11 58 34 90 51 31 16 57 33 57 37 0 4 5 8 12 8
27 0 149 82 163 110 13 25 15 98 15 475 0 429 -1 448 -20 475 -18 25 -78 65
-172 115 -21 11 -38 23 -38 27 0 5 -5 8 -12 8 -6 0 -57 27 -112 59 -56 32
-123 71 -150 86 -75 42 -149 84 -166 95 -8 5 -34 19 -57 30 -23 11 -44 24 -47
29 -4 5 -24 12 -46 16 -37 6 -51 1 -153 -55 -62 -35 -137 -76 -167 -93 -30
-16 -59 -34 -64 -38 -6 -5 -14 -9 -18 -9 -4 0 -8 141 -8 313 l0 313 57 29 c32
17 63 36 71 43 7 6 20 12 28 12 8 0 14 4 14 9 0 5 8 11 18 15 9 3 24 10 32 16
17 11 86 50 176 101 33 18 73 40 89 50 17 10 33 18 38 18 4 1 7 -81 7 -181z
m-88 -835 c29 -16 58 -34 66 -40 7 -7 20 -13 28 -13 8 0 14 -3 14 -8 0 -4 17
-15 38 -25 20 -10 60 -31 87 -49 28 -17 76 -45 109 -62 32 -17 59 -35 59 -41
0 -5 -17 -19 -39 -30 -21 -11 -44 -26 -52 -32 -7 -7 -20 -13 -28 -13 -8 0 -14
-4 -14 -10 0 -5 -6 -10 -14 -10 -8 0 -21 -6 -28 -12 -7 -7 -26 -20 -43 -28
-16 -8 -52 -29 -80 -46 -27 -16 -66 -38 -85 -47 -19 -10 -43 -23 -52 -30 -14
-9 -22 -9 -35 0 -10 7 -34 20 -53 30 -19 9 -57 31 -85 48 -27 17 -66 39 -85
49 -38 19 -50 26 -125 71 -28 16 -58 34 -69 40 -28 15 -23 28 20 50 21 11 41
23 42 28 2 4 10 7 17 7 8 0 20 6 27 13 7 6 29 20 48 30 19 10 44 23 55 30 11
7 38 23 60 35 22 13 67 38 100 57 33 18 61 34 62 34 2 1 26 -11 55 -26z m1980
-6 c31 -18 97 -56 146 -84 49 -29 95 -53 101 -53 6 0 11 -4 11 -9 0 -5 12 -14
28 -20 43 -17 104 -55 104 -66 1 -5 -8 -15 -18 -20 -11 -6 -41 -24 -69 -40
-75 -45 -87 -52 -125 -71 -19 -10 -60 -33 -90 -52 -30 -19 -68 -41 -85 -49
-16 -7 -38 -19 -47 -26 -14 -9 -22 -9 -35 0 -10 7 -34 20 -53 30 -19 9 -57 31
-85 48 -27 17 -66 39 -85 48 -47 24 -124 69 -130 76 -3 3 -23 15 -44 26 -22
11 -40 24 -40 29 -1 6 26 24 59 42 33 17 83 45 110 62 28 18 67 39 88 49 20
10 37 21 37 25 0 5 6 8 14 8 8 0 21 6 28 13 15 13 109 66 118 66 3 0 31 -15
62 -32z m-2582 -472 c22 -14 42 -25 45 -25 2 0 29 -16 59 -35 30 -19 57 -35
60 -35 4 0 140 -77 176 -100 8 -5 30 -17 48 -26 l32 -16 0 -269 c0 -148 -2
-269 -5 -269 -2 0 -26 13 -52 28 -26 16 -55 31 -63 35 -8 5 -24 13 -35 20
-128 76 -255 147 -264 147 -6 0 -11 4 -11 9 0 5 -9 11 -20 14 -19 5 -20 14
-20 276 0 149 2 271 5 271 3 0 23 -11 45 -25z m1132 -523 c-7 -2 -205 -114
-385 -218 -33 -19 -63 -31 -68 -28 -5 3 -9 120 -9 264 l0 259 58 34 c31 19 75
44 97 56 22 12 47 26 55 31 24 15 163 95 180 103 8 4 29 15 45 25 l30 19 3
-271 c1 -149 -1 -272 -6 -274z m878 501 c17 -8 157 -88 180 -103 8 -5 40 -23
70 -40 30 -17 73 -41 95 -54 l40 -24 3 -258 c1 -142 -1 -261 -6 -266 -5 -5
-107 48 -226 117 -120 69 -222 125 -227 125 -5 0 -9 120 -9 275 l0 275 33 -20
c17 -11 39 -23 47 -27z m1110 -218 c0 -139 -3 -260 -6 -269 -3 -9 -12 -16 -20
-16 -8 0 -14 -4 -14 -10 0 -5 -5 -10 -11 -10 -9 0 -136 -71 -264 -147 -11 -7
-27 -15 -35 -20 -8 -4 -37 -19 -63 -35 -26 -15 -50 -28 -52 -28 -3 0 -5 121
-5 269 l0 269 33 16 c17 9 39 21 47 26 32 20 167 97 200 113 19 10 67 37 105
61 39 24 73 41 78 39 4 -2 7 -118 7 -258z"/>
</g>
</svg>
